<svg xmlns="http://www.w3.org/2000/svg" baseProfile="tiny-ps" version="1.2" viewBox="0 0 550 550">
  <style>
    .shp0{fill:#ff9801}.shp4{fill:#f5f5f5}.shp5{fill:#cfd8dc}.shp8{fill:#fff}.shp9{fill:#000}
  </style>
  <path fill="#050317" d="M0 0h550v550H0z"/>
  <path d="M325.2 403.3a68.8 68.8 0 0 1-105.1 0 418.5 418.5 0 0 0 105 0Z" class="shp0"/>
  <path fill="#f57c00" d="M307.3 405.1a68 68 0 0 1-42.9 22.2c23 2.8 46-6.3 60.8-24a319.5 319.5 0 0 1-13.4 1.5l-4.5.3Z"/>
  <path fill="#ffeb3a" d="M404.4 359.3c0 23.8-35 38-79.2 44a419.2 419.2 0 0 1-105.1 0c-44.7-6-79.8-20.2-79.8-44s35-38.1 79.5-44A67.6 67.6 0 0 0 208 335c-76.8 14.2-37.7 41.3 41.2 44.8 44.3 2.5 89.8-4.2 89.8-5.3 46.1-9.2 56.6-27.4 1.8-38.7v-18c36.6 7 63.5 20.4 63.5 41.5Z"/>
  <path fill="#fdd834" d="M341 317.9v3.6c28.2 7.7 47.6 20 47.6 37.8 0 23.8-35 38-79.3 44-14.9 2-29.9 3.2-44.9 3.4 20.3.4 40.7-.7 60.8-3.4 44.4-6 79.2-20.2 79.2-44 0-21.1-26.9-34.4-63.4-41.4Z"/>
  <path d="M328.4 208.4a58.4 58.4 0 0 1-72.8 25.4l-.7-.3a58.4 58.4 0 0 1-35.4-53.3 57.7 57.7 0 0 1 43.5-56 58.3 58.3 0 0 1 65.3 27.8c-21-13.2-54-11.3-71.8 5.6a29.7 29.7 0 0 0-7.8 35c1.8 4 4.5 7.5 7.8 10.3 17.4 16.5 50.2 19 71.9 5.5Z" class="shp4"/>
  <path d="M307.2 144.3a57.1 57.1 0 0 1 21.2 7.7 57.6 57.6 0 0 0-58.4-29.2 57.2 57.2 0 0 1 37.2 21.5Zm.1 71.8a59.1 59.1 0 0 1-37.9 21.5 58.2 58.2 0 0 0 58.8-29.2 56.8 56.8 0 0 1-20.9 7.7Z" class="shp5"/>
  <path fill="#02a9f4" d="M331 203.2c-.8 1.8-1.6 3.5-2.6 5.2-21.7 13.5-54.5 11-71.9-5.6a29.7 29.7 0 0 1-7.8-35c1.8-4 4.5-7.5 7.8-10.3 17.9-16.8 50.7-18.7 71.8-5.5a57 57 0 0 1 2.7 51.2Z"/>
  <path fill="#0377bc" d="M328.3 152a63.1 63.1 0 0 0-40-8.1c8.5.9 16.8 3.7 24.2 8a57.4 57.4 0 0 1 0 56.5 58.7 58.7 0 0 1-24.3 8.2 63.5 63.5 0 0 0 40.2-8.2 57.4 57.4 0 0 0 0-56.4Z"/>
  <path d="M301.3 283.8a15.3 15.3 0 0 1-9.3 6.6 16 16 0 0 1-3.8.4c-5 0-4.6-.5-39-17.5a47.3 47.3 0 0 1-25.6-50.2c1.5-9.4 1.5-10.9 3.5-14.3a57.2 57.2 0 0 0 27.8 24.7 15.7 15.7 0 0 0 8.5 11.5l31.7 15.8a15.9 15.9 0 0 1 8.5 16.7 16 16 0 0 1-2.5 6.2l.2.1Zm34.9-13.2c-5.3 20.6-25.6 17-30.7 6a15.6 15.6 0 0 1-1.2-3.8c-1.4-8.4 5.7-14.4-5.3-38.6a57 57 0 0 0 24.7-18.3c7.3 6.2 10.5 19.2 12.2 28.3 2 8.7 2.2 17.7.3 26.4Z" class="shp5"/>
  <path d="M304 293.4v52.2a18.6 18.6 0 0 1-8.7 16 18.6 18.6 0 0 1-14 2.4 18.4 18.4 0 0 1-14.2-17.9v-34.2c0-.6 0-1.2-.3-1.8a5.5 5.5 0 0 0-2.1-2.8c-.5-.3-1-.6-1.6-.7l-25.7-6.4a18.8 18.8 0 0 1-12.6-17.3V244a47.4 47.4 0 0 0 24.4 29.2c34.4 17 34 17.5 39 17.5 5.3 0 10.3-2.6 13.1-7 1.8 2.9 2.8 6.2 2.8 9.6Zm.3-20.6h-.2a15.8 15.8 0 0 0-8.7-12L263.8 245a16 16 0 0 1-8.6-11.4l.7.3a57.7 57.7 0 0 0 43.3 0c10.8 24.5 3.7 30.6 5.1 39Z" class="shp4"/>
  <path d="M341 282.9v53a18.4 18.4 0 0 1-18.6 18.3 18.5 18.5 0 0 1-18.3-18.6v-42.2c0-3.4-1-6.7-2.8-9.6 2.3-3.2 3.3-7 2.8-11h.4c.2 1.4.6 2.7 1.2 4 5 11 25.5 14.4 30.7-6.1 3 3.4 4.6 7.7 4.6 12.2Z" class="shp4"/>
  <path fill-rule="evenodd" d="M335 275a18.5 18.5 0 0 1-9.8 9.6v51.3a19 19 0 0 1-10.6 16.3 18 18 0 0 0 20.9-3.5 18.4 18.4 0 0 0 5.5-12.8v-53a18.7 18.7 0 0 0-4.7-12.3c-.2 1.6-.7 3-1.3 4.5Zm-97.6 25.4a18.8 18.8 0 0 1-12.7-17.5v-38.8a49.2 49.2 0 0 1-1.2-21c1.5-9.4 1.5-10.9 3.5-14.3a58 58 0 0 1-7.5-25.6l-13 3.7a16 16 0 0 0-11.2 12 15 15 0 0 0-.1 5.6l12.4 82.7a15.5 15.5 0 0 0 6.2 10.3c1.1.9 2.3 1.5 3.6 2l13.4 5.3c2-1.7 4.3-3.2 6.6-4.4Z" class="shp5"/>
  <path d="M339.3 374.5c0 1.4-46.9 7.8-89.8 5.3-14.8-.5-29.4-2.3-44-5.3a68.2 68.2 0 0 1 32.1-74.2l6.4 1.7 6.4 1.6a6038.8 6038.8 0 0 1 12.8 3.2 5.2 5.2 0 0 1 3.6 3.4c.2.5.3 1 .3 1.7V346a18.4 18.4 0 0 0 33 11.3 18.6 18.6 0 0 0 4-11.8v-10a18.4 18.4 0 0 0 14.4 17.8 18.5 18.5 0 0 0 20.7-10 69.1 69.1 0 0 1 0 31.1Z" class="shp0"/>
  <path d="M150.8 227.6a5.4 5.4 0 0 0-3.7 1.5 5.2 5.2 0 0 0-1.5 3.8v5.2h-5.3a5.3 5.3 0 0 0 0 10.6h5.3v5.2a5.3 5.3 0 0 0 9 3.8c1-1 1.5-2.4 1.5-3.8v-5.2h5.3a5.3 5.3 0 0 0 0-10.6h-5.3V233a5.2 5.2 0 0 0-3.2-4.9 5 5 0 0 0-2-.4Zm259-84.3h-5.4v-5.2a5.3 5.3 0 0 0-9-3.8c-1 1-1.5 2.4-1.5 3.8v5.2h-5.3a5.3 5.3 0 0 0 0 10.6h5.3v5.2a5.2 5.2 0 0 0 5.3 5.3 5.3 5.3 0 0 0 5.2-5.3V154h5.3a5.3 5.3 0 0 0 0-10.6Z" class="shp8"/>
  <path fill-rule="evenodd" d="M409.7 359.3c0 24.2-29.2 41.5-82.2 49a73.7 73.7 0 0 1-110.3 0c-53-7.5-82.2-24.9-82.2-49 0-24.2 29.2-41.6 81.9-48.8l3.7-3.7-5.3-2.2a21 21 0 0 1-13.1-16.4l-12.4-82.7a21.3 21.3 0 0 1 8.3-20 21 21 0 0 1 6.8-3.3l9.2-2.7a63.2 63.2 0 0 1 82.3-59.2 63.3 63.3 0 0 1 34 95.2c9.2 11.5 14.3 39 11.6 54.2 2.7 3.9 4.3 8.5 4.3 13.2v30.7c41.5 8.8 63.4 24.6 63.4 45.7Zm-10.6 0c0-15-19.1-27.5-52.8-35v7.4c24.5 5.6 37 13.4 37 23.4 0 15.8-31.3 22.7-47.2 25.4a404.1 404.1 0 0 1-127.5 0c-15.5-2.8-47.2-9.6-47.2-25.4 0-10.8 14.5-19.1 43-24.7 1.1-2.7 2.4-5.4 4-8-39.6 7-62.8 20.5-62.8 36.9 0 18 28 32.5 74.9 38.8a409 409 0 0 0 103.7 0c47-6.3 75-20.8 75-38.8Zm-189 10.8a395.2 395.2 0 0 0 124.6 0 51 51 0 0 0 .8-14.8A23.6 23.6 0 0 1 308 354a23.8 23.8 0 0 1-46.1-7.9v-34.2l-23.6-5.8a63.3 63.3 0 0 0-28.7 45.5c-.8 6.2-.6 12.4.5 18.5ZM296 240.7a63 63 0 0 1-24.5 2.4c28.4 14.4 26.7 13.3 28.4 14.4a46.1 46.1 0 0 0-4-16.8Zm-45.5-3.5a62.6 62.6 0 0 1-21.2-16.3l-.4 3a41.9 41.9 0 0 0 22.8 44.6l31.7 15.8a10.6 10.6 0 0 0 13.8-4.9 10.5 10.5 0 0 0-4.4-14L261 249.8a21.4 21.4 0 0 1-10.5-12.5ZM230 282.9a13.6 13.6 0 0 0 9.9 12.7l24.3 6a10.6 10.6 0 0 1 8 10.3V346a13.1 13.1 0 0 0 13.5 12.9 13.2 13.2 0 0 0 13-13.4v-52.4a21 21 0 0 1-20 .6c-32.3-16-39.6-18.4-48.7-29v18Zm114.5 61a72.1 72.1 0 0 1 1.3 23.8c20.1-4.8 26.8-11 26.8-12.6 0-1.8-5.2-7.7-27.4-13l-.7 1.8Zm-8.9-60.4a21 21 0 0 1-20.2 7 25 25 0 0 1-7-2.8c.8 4 .8 1.2.8 48.1a13.1 13.1 0 0 0 13.3 13.2 13.2 13.2 0 0 0 13.1-13.2v-52.3Zm-10.2-5c12.4-7.9 5-43.4-2-54.6a62.3 62.3 0 0 1-17.7 13c9.8 24 1 30 4.5 37.6a10.5 10.5 0 0 0 11.1 5.6c1.5-.2 2.9-.7 4.1-1.5ZM260 161.6a24.4 24.4 0 0 0 0 37.6c15 14.2 43.9 17.3 64.2 5.6a52 52 0 0 0 .1-49c-19.2-11.3-48.4-9.3-64.3 5.8Zm-24-13.8a52.6 52.6 0 0 0 39.6 84.7 53 53 0 0 0 35.6-11.8c-53.1 11.4-91.7-35.8-58.3-67 14.8-14 38-18.4 58.5-14a53 53 0 0 0-75.4 8.1Zm-23.2 138.5a10.3 10.3 0 0 0 4.3 7c.7.5 1.6 1 2.4 1.2l4.3 1.8a24 24 0 0 1-4.3-13.4v-38.2a51.3 51.3 0 0 1-1.1-22.4 48.4 48.4 0 0 1 2.8-13.3c-3-6-5.1-12.4-6.2-19l-7 2a10.5 10.5 0 0 0-7.6 11.7l12.4 82.6Zm97 124a412.4 412.4 0 0 1-74.8 0 63.1 63.1 0 0 0 74.7 0ZM200.4 342c-21.3 4.9-28.5 11-28.5 13.1 0 2.1 6.8 7.8 26.9 12.6-1-8.6-.5-17.3 1.6-25.7Z" class="shp9"/>
  <path d="M288.2 159.1a5.2 5.2 0 0 0 3.3 4.9c.6.3 1.3.4 2 .4.8 0 21.1 0 21.1 15.8 0 1.4.6 2.7 1.6 3.7a5.3 5.3 0 0 0 9-3.7c0-21-20.7-26.3-31.7-26.3a5.2 5.2 0 0 0-3.8 1.5 5.3 5.3 0 0 0-1.5 3.7Z" class="shp9"/>
  <path d="M378 275a5.4 5.4 0 0 0-3.7 1.5 5.2 5.2 0 0 0-1.6 3.8v5.2h-5.3a5.3 5.3 0 0 0 0 10.6h5.3v5.2a5.3 5.3 0 0 0 9 3.8c1-1 1.6-2.4 1.6-3.8v-5.2h5.3a5.3 5.3 0 1 0 0-10.6h-5.3v-5.2a5.2 5.2 0 0 0-3.3-4.9c-.6-.3-1.3-.4-2-.4Z" class="shp8"/>
</svg>
